<?xml version="1.0" standalone="no"?>
<!DOCTYPE svg PUBLIC "-//W3C//DTD SVG 20010904//EN" "http://www.w3.org/TR/2001/REC-SVG-20010904/DTD/svg10.dtd">
<!-- Created using Krita: https://krita.org -->
<svg xmlns="http://www.w3.org/2000/svg" 
    xmlns:xlink="http://www.w3.org/1999/xlink"
    xmlns:krita="http://krita.org/namespaces/svg/krita"
    xmlns:sodipodi="http://sodipodi.sourceforge.net/DTD/sodipodi-0.dtd"
    width="240pt"
    height="240pt"
    viewBox="0 0 240 240">
<defs/>
<path id="shape0" transform="translate(48.48, 29.76)" fill="none" stroke="#000000" stroke-width="2.64" stroke-linecap="square" stroke-linejoin="bevel" d="M71.64 144.96L138 99.12L135.12 94.32L143.28 91.44L112.08 48.72L119.04 0L90.24 36.48L71.4 33.3225L53.04 36.48L24.24 0L31.2 48.72L0 91.44L8.16 94.32L5.28 99.12Z" sodipodi:nodetypes="ccccccccccccccc"/><path id="shape1" transform="matrix(0.821792272948342 -0.569787206000977 0.714051851466136 1.02986217984389 128.391660300863 106.981913492857)" fill="none" stroke="#000000" stroke-width="2.64" stroke-linecap="square" stroke-linejoin="bevel" d="M26.2896 5.04687C26.2896 1.46806 19.1146 2.22045e-16 11.6919 0C4.26923 -2.22045e-16 8.88178e-16 1.13841 0 4.71722C-8.88178e-16 8.29603 4.12715 11.9548 11.5499 11.9548C18.9726 11.9548 26.2896 8.62567 26.2896 5.04687Z" sodipodi:nodetypes="ccccc"/><path id="shape2" transform="translate(113.76, 126.96)" fill="none" stroke="#000000" stroke-width="2.64" stroke-linecap="square" stroke-linejoin="bevel" d="M6.36 7.68L12.48 5.04L12.72 0L6.36 0L0 0L0.24 5.04Z" sodipodi:nodetypes="ccccccc"/><path id="shape3" transform="translate(168.48, 90)" fill="none" stroke="#000000" stroke-width="2.4" stroke-linecap="square" stroke-linejoin="miter" stroke-miterlimit="2" d="M0 0L15.36 28.08" sodipodi:nodetypes="cc"/><path id="shape4" transform="translate(136.8, 116.4)" fill="none" stroke="#000000" stroke-width="2.4" stroke-linecap="square" stroke-linejoin="miter" stroke-miterlimit="2" d="M0 46.56L39.6 12.72L34.8 22.32M41.28 9.6L26.16 0L53.28 3.84" sodipodi:nodetypes="cccccc"/><path id="shape5" transform="translate(165.36, 30)" fill="none" stroke="#000000" stroke-width="2.4" stroke-linecap="square" stroke-linejoin="miter" stroke-miterlimit="2" d="M2.64 0L0 54.72" sodipodi:nodetypes="cc"/><path id="shape6" transform="matrix(-0.821792272948342 -0.569787206000977 -0.714051851466136 1.02986217984389 111.848339699137 106.981913492857)" fill="none" stroke="#000000" stroke-width="2.64" stroke-linecap="square" stroke-linejoin="bevel" d="M26.2896 5.04687C26.2896 1.46806 19.1146 2.22045e-16 11.6919 0C4.26923 -2.22045e-16 8.88178e-16 1.13841 0 4.71722C-8.88178e-16 8.29603 4.12715 11.9548 11.5499 11.9548C18.9726 11.9548 26.2896 8.62567 26.2896 5.04687Z" sodipodi:nodetypes="ccccc"/><path id="shape7" transform="matrix(-1 0 0 1 71.76 90)" fill="none" stroke="#000000" stroke-width="2.4" stroke-linecap="square" stroke-linejoin="miter" stroke-miterlimit="2" d="M0 0L15.36 28.08" sodipodi:nodetypes="cc"/><path id="shape8" transform="matrix(-1 0 0 1 103.44 116.4)" fill="none" stroke="#000000" stroke-width="2.4" stroke-linecap="square" stroke-linejoin="miter" stroke-miterlimit="2" d="M0 46.56L39.6 12.72L34.8 22.32M40.8 9.12L26.16 0L53.28 3.84" sodipodi:nodetypes="cccccc"/><path id="shape9" transform="matrix(-1 0 0 1 74.88 30)" fill="none" stroke="#000000" stroke-width="2.4" stroke-linecap="square" stroke-linejoin="miter" stroke-miterlimit="2" d="M2.64 0L0 54.72" sodipodi:nodetypes="cc"/><path id="shape10" transform="matrix(-1 0 0 1 143.76 59.52)" fill="none" stroke="#000000" stroke-width="2.4" stroke-linecap="square" stroke-linejoin="miter" stroke-miterlimit="2" d="M47.28 0L24 8.16L0 0" sodipodi:nodetypes="ccc"/>
</svg>
